<?xml version="1.0" encoding="UTF-8"?>
<!DOCTYPE svg PUBLIC "-//W3C//DTD SVG 1.1//EN" "http://www.w3.org/Graphics/SVG/1.1/DTD/svg11.dtd">
<!-- Creator: CorelDRAW -->
<svg xmlns="http://www.w3.org/2000/svg" xml:space="preserve" version="1.1" style="shape-rendering:geometricPrecision; text-rendering:geometricPrecision; image-rendering:optimizeQuality; fill-rule:evenodd; clip-rule:evenodd"
viewBox="0 0 4200 2970"
 xmlns:xlink="http://www.w3.org/1999/xlink"
 xmlns:xodm="http://www.corel.com/coreldraw/odm/2003">
 <defs>
  <style type="text/css">
   <![CDATA[
    .fil1 {fill:#FAA61A}
    .fil0 {fill:#482C5E;fill-rule:nonzero}
   ]]>
  </style>
 </defs>
 <g id="Layer_x0020_1">
  <metadata id="CorelCorpID_0Corel-Layer"/>
  <g id="_1777536216288">
   <path class="fil0" d="M29065.18 15253.47c-885,399.28 -1127.56,1167.4 -793.94,1453.39 319.12,273.59 729,-97.16 738.21,-186.42 42.63,-425.09 41.62,-858.19 55.73,-1266.97zm1497.12 1604.8c-46.93,218.84 -236.86,521.75 -554.17,554.57 -419.79,43.43 -688.37,-170.51 -902.72,-532.66 -71.65,65.65 -137.99,127.39 -205.44,188.13 -303.2,275.39 -653.74,422.59 -1069.63,399.27 -371.75,-20.81 -671.45,-167.01 -825.76,-517.55 -155.6,-354.44 -93.86,-700.38 165.22,-980.67 153.9,-166.61 347.43,-311.31 549.37,-416.58 381.26,-199.04 779.03,-366.75 1174.8,-536.87 110.47,-47.73 172.32,-98.86 169.41,-225.25 -13.71,-655.25 -275.98,-857.18 -513.95,-832.77 -231.25,23.32 -368.55,174.32 -373.15,416.19 -2.1,136.29 11.31,272.88 0.7,408.07 -24.02,316.72 -223.45,478.33 -521.05,454.71 -299.01,-24.41 -456.81,-228.45 -416.19,-558.48 35.63,-285.99 221.35,-509.44 450.11,-678.16 600.51,-442.3 1369.73,-459.31 1998.76,-52.93 300.8,194.53 444.1,539.06 454.31,822.86 17.31,591.7 21.21,1183.7 49.83,1775 13.41,274.59 117.88,347.04 369.55,313.12z"/>
   <path class="fil0" d="M24390.11 14967.98c227.35,0 463.21,2.5 627.72,-0.3 386.16,-1.4 570.49,-180.42 487.13,-621.02 -29.62,-158.11 -163.81,-349.84 -375.25,-362.15 -624.13,-24.01 -751.21,714.49 -739.6,983.47zm2144.25 245.37l-2097.62 0c-2.1,540.46 86.86,1000.08 500.24,1290.97 445.1,313.12 1104.25,294.1 1615.4,-26.11 -30.33,110.87 -27.52,252.77 -96.37,328.32 -473.42,519.25 -1070.03,748.01 -1764,624.12 -701.48,-125.68 -1171.7,-550.37 -1381.74,-1235.94 -344.93,-1125.36 307.11,-2256.83 1428.27,-2496.49 988.87,-211.15 1858.67,509.34 1795.82,1515.13z"/>
   <path class="fil1" d="M11819.06 12741.27c0,296.2 -240.47,536.26 -536.57,536.26 -295.9,0 -535.96,-240.06 -535.96,-536.26 0,-296.11 240.06,-536.17 535.96,-536.17 296.1,0 536.57,240.06 536.57,536.17z"/>
   <path class="fil1" d="M13762.38 12741.27c0,296.2 -240.06,536.26 -536.27,536.26 -295.8,0 -536.26,-240.06 -536.26,-536.26 0,-296.11 240.46,-536.17 536.26,-536.17 296.21,0 536.27,240.06 536.27,536.17z"/>
   <path class="fil0" d="M10209.06 17410.34c-32.82,-72.75 -46.53,-141.9 -98.46,-159.61 -348.04,-89.26 -386.17,-341.03 -386.57,-645.64 0,-641.43 7.11,-1284.27 -32.82,-1924 -38.43,-620.53 -337.13,-939.64 -960.25,-967.26 -489.94,-21.52 -784.74,142.69 -1151.19,566.98l0 -571.49c-4.9,2.11 -9.5,4.21 -14.11,6.71 -692.57,539.37 -1279.27,786.43 -1565.56,875.79l53.64 103.07c321.62,72.05 522.05,252.08 522.05,483.63 0,457.21 12.01,993.78 6.41,1463.6l0 28.32c-6.41,275.69 -61.75,499.84 -385.17,582.79 -52.23,17.62 -66.04,86.86 -98.46,159.51l483.63 0 1116.25 0 483.23 0c-32.42,-72.65 -46.23,-141.89 -98.06,-159.51 -323.42,-82.95 -379.16,-307.1 -385.17,-582.79l0 -447.71 0.71 0c-1.11,-417.58 1,-835.16 1,-1252.85 0,-423.59 171.91,-619.52 396.87,-653.04 426.09,-63.55 498.43,382.66 496.63,603.31 -5.3,528.06 2.51,841.17 2.51,1369.73l0 1120.46 1612.89 0z"/>
   <path class="fil0" d="M14267.02 17333.59c-31.72,-73.45 -44.43,-142.6 -96.36,-161.01 -281.7,-75.85 -357.55,-257.68 -374.16,-486.03 -2.1,-32.82 -3.5,-66.75 -3.9,-101.37l-0.7 -38.13 0 -794.24 0.4 0 0 -2106.13c-3.2,1.4 -916.52,591 -1706.56,880.1l53.73 103.07c321.52,72.05 522.06,252.37 522.06,483.93 0,170.22 1.8,436.7 3.5,625.22l-0.7 0c-4.2,296.21 -9.5,530.97 -25.42,826.77 -11.6,219.25 -210.74,356.54 -361.14,353.04 -412.28,-9.21 -415.48,-553.58 -416.18,-690.17 -0.7,-158.51 -0.7,-317.32 -1,-475.83l1 0 0 -2106.13c-3.21,1.4 -917.13,591 -1706.86,880.1l53.73 103.07c321.22,72.05 521.76,252.37 521.76,483.93 0,174.42 1.7,449.81 3.8,639.03 0.4,273.19 11.71,547.18 32.92,819.36 37.73,496.34 327.92,822.86 812.55,876.5 774.23,85.46 1152.69,-431.7 1208.13,-475.83 6.7,133.79 12.3,237.57 18.31,354.44l977.46 0 0 0.3c144.8,1.81 301.21,3.91 483.63,6.01z"/>
   <path class="fil0" d="M16011.81 16367.63c-43.73,-286.59 -26.42,-582.79 -28.92,-875.09 -1.4,-156.41 -1.4,-313.52 -1.4,-470.62l-2.1 0 0 -733.9c258.37,20.81 522.75,87.86 731.39,-18.41 83.36,-42.33 129.59,-411.18 129.59,-411.18l-860.98 78.65 0 -1458.99c-3.21,1.4 -565.59,708.88 -1774.01,1575.47l53.74 103.47c324.72,53.34 522.05,92.46 522.05,576.49 0,166.31 1.8,424.29 3.2,612.12 -7.8,343.13 -14.81,686.26 -14.81,1029.4 -0.4,617.12 266.88,1000.08 764.32,1092.24 486.43,90.06 796.34,-98.17 1181.51,-414.78 49.73,-43.73 60.34,-116.88 82.95,-205.14 -525.25,110.57 -714.18,-2.8 -786.53,-479.73z"/>
   <path class="fil0" d="M21564.58 17410.34l1613 0c-32.12,-72.75 -46.23,-141.9 -98.17,-159.61 -347.73,-89.26 -386.56,-341.03 -386.56,-645.64 -0.3,-641.43 7.11,-1284.27 -32.42,-1924 -39.23,-620.53 -337.53,-939.64 -960.65,-967.26 -207.15,-9.11 -378.06,19.11 -535.87,82.95l-0.3 -2.1c-11.01,5.01 -34.22,13.81 -45.23,19.12 -320.92,160.9 -496.64,444.8 -496.64,444.8 -586.4,-906.62 -1516.93,-425.79 -1516.93,-425.79 -179.02,91.46 -342.83,237.56 -524.66,448l0 -571.49c-4.9,2.11 -9.1,4.21 -14.11,6.71 -692.57,539.37 -1279.26,786.43 -1565.56,875.79l53.64 103.07c321.62,72.05 522.05,252.08 522.05,483.63 0,457.21 12.01,993.78 6.41,1463.6l0 28.32c-6.41,275.69 -61.75,499.84 -385.17,582.79 -52.23,17.62 -66.04,86.86 -98.16,159.51l483.33 0 1116.26 0 0 -1190.01 0.7 0c-1.11,-417.58 1.4,-835.16 1.4,-1252.85 0,-423.59 171.51,-619.52 396.77,-653.04 2.5,-0.4 4.6,-0.4 7.1,-0.7 437.7,-86.56 405.98,554.17 405.98,554.17 16.61,234.76 32.12,710.99 38.12,891.01l-0.4 0c2.8,296.9 6.01,600.21 2.5,880.8l0 28.32c-6.7,275.69 -62.14,499.84 -385.16,582.79 -52.23,17.62 -65.64,86.86 -98.46,159.51l483.62 0 1115.86 0 483.63 0c-32.82,-72.65 -46.23,-141.89 -98.06,-159.51 -323.42,-82.95 -378.86,-307.1 -385.57,-582.79l0 -447.71 0.7 0c-0.3,-153.9 0.4,-307.81 0.7,-461.41l0 -1134.17c91.87,-265.88 322.72,-316.32 455.81,-322.02 387.97,-7.01 437,492.83 438.1,615.02 5.61,528.06 2.4,841.17 2.8,1369.73 0,297.9 -0.4,811.55 -0.4,1120.46z"/>
   <path class="fil0" d="M32683.34 17412.94c-32.92,-73.05 -46.33,-141.89 -98.56,-159.91 -323.02,-82.65 -378.76,-307.1 -385.06,-582.49l0 -448.01 0 -3744.44c-38.93,40.62 -1104.26,747.01 -1698.46,957.75l54.04 103.47c321.22,71.95 521.75,251.97 521.75,483.63 0,457.11 12.41,2149.46 6.71,2618.98l0 28.62c-6.71,275.39 -62.15,499.84 -385.47,582.49 -52.23,18.02 -65.64,86.86 -98.16,159.91l483.63 0 1115.96 0 483.62 0z"/>
   <path class="fil0" d="M35372.27 15389.27c-214.94,-94.27 -430.99,-187.43 -640.73,-292.3 -209.65,-104.87 -373.46,-211.15 -611.42,-345.24 -248.87,-139.79 -421.18,-590.6 139.8,-816.55 328.62,-121.08 628.72,-9.51 858.18,243.96 134.49,148.6 227.66,333.93 349.84,495.24 46.93,62.14 120.38,138.79 174.42,140.5 24.71,1.1 50.13,-15.51 70.24,-30.02 0,-260.18 5.61,-520.36 -4.3,-779.43 -0.3,-9.21 -2.8,-76.96 -2.8,-76.96l-3.9 -97.46 -196.94 -59.64c-0.4,0 -0.7,-0.7 -0.7,-0.7 -235.46,-58.94 -416.58,-101.67 -657.34,-124.29 -517.86,-48.73 -1016,2.1 -1470,304.31 -544.27,362.54 -736.7,1370.43 86.15,1768.6 225.96,109.48 458.62,206.24 680.67,322.72 185.32,97.37 371.75,200.14 536.56,327.52 162.71,126.39 244.97,381.66 161.71,594.21 -84.05,213.54 -270.48,271.78 -474.52,272.48 -314.11,1.1 -608.91,-95.96 -802.05,-343.43 -181.02,-232.36 -302.1,-510.55 -458.21,-763.62 -31.42,-50.43 -151.4,-68.15 -233.36,-80.45 -1,108.37 -6.3,704.97 11.01,996.57 3.9,69.55 59.94,164.81 153.21,193.03 301.1,92.17 606.11,191.33 916.72,229.46 539.07,65.74 1065.82,27.62 1539.95,-302.11 586.7,-407.77 800.64,-1371.83 -122.19,-1776.4z"/>
  </g>
  <path class="fil0" d="M35389.31 12809.81c52.35,0 103.43,13.41 153.39,40.36 49.81,26.81 88.75,65.34 116.55,115.29 27.8,50.1 41.77,102.31 41.77,156.49 0,53.77 -13.69,105.55 -41.2,155.08 -27.38,49.68 -65.76,88.2 -115.29,115.58 -49.53,27.51 -101.32,41.2 -155.22,41.2 -54.05,0 -105.84,-13.69 -155.37,-41.2 -49.53,-27.38 -88.05,-65.9 -115.57,-115.58 -27.51,-49.53 -41.34,-101.31 -41.34,-155.08 0,-54.18 13.97,-106.39 41.91,-156.49 28.08,-49.95 67.02,-88.48 116.84,-115.29 49.95,-26.95 101.03,-40.36 153.53,-40.36zm0 51.65c-43.89,0 -86.65,11.29 -128.13,33.73 -41.49,22.43 -73.95,54.61 -97.37,96.38 -23.42,41.77 -35.14,85.23 -35.14,130.38 0,45.02 11.57,88.06 34.58,129.26 23,41.21 55.17,73.38 96.52,96.38 41.34,23 84.52,34.57 129.54,34.57 44.87,0 88.05,-11.57 129.4,-34.57 41.34,-23 73.52,-55.17 96.38,-96.38 22.86,-41.2 34.29,-84.24 34.29,-129.26 0,-45.15 -11.72,-88.61 -35,-130.38 -23.28,-41.77 -55.74,-73.95 -97.37,-96.38 -41.63,-22.44 -84.24,-33.73 -127.7,-33.73zm-137.02 432.65l0 -335.28 115.43 0c39.51,0 68.01,3.1 85.65,9.31 17.78,6.21 31.75,16.93 42.33,32.46 10.45,15.38 15.67,31.75 15.67,49.1 0,24.42 -8.75,45.87 -26.39,63.93 -17.5,18.2 -40.78,28.36 -69.85,30.62 11.85,4.94 21.45,10.86 28.5,17.78 13.55,13.12 30.06,35.28 49.68,66.46l40.92 65.62 -65.76 0 -29.92 -52.78c-23.42,-41.62 -42.47,-67.73 -56.86,-78.17 -9.88,-7.62 -24.27,-11.43 -43.32,-11.29l-31.9 0 0 142.24 -54.18 0zm54.18 -188.81l65.76 0c31.47,0 52.92,-4.65 64.35,-13.97 11.43,-9.31 17.21,-21.73 17.21,-36.97 0,-9.88 -2.82,-18.77 -8.32,-26.53 -5.5,-7.9 -13.12,-13.69 -22.86,-17.5 -9.88,-3.81 -27.94,-5.78 -54.47,-5.78l-61.67 0 0 100.75z"/>
 </g>
</svg>
